
        <svg xmlns="http://www.w3.org/2000/svg" xmlns:xlink="http://www.w3.org/1999/xlink" version="1.1" width="2815.2188951920375" 
        height="3169.336474898769" viewBox="0 0 2815.2188951920375 3169.336474898769">
			
			<g transform="scale(8.46682374493846) translate(10, 10)">
				<defs id="SvgjsDefs3101"></defs><g id="SvgjsG3102" featureKey="rootContainer" transform="matrix(6.3004014813942035,0,0,6.3004014813942035,0.000046358657472104394,0.02629501308574099)" fill="#ffffff"><path xmlns="http://www.w3.org/2000/svg" d="M23.11 55.78L1.69 43.41A3.39 3.39 0 0 1 0 40.48V15.75a3.39 3.39 0 0 1 1.69-2.94L23.11.45a3.39 3.39 0 0 1 3.39 0l21.41 12.37a3.39 3.39 0 0 1 1.69 2.94v24.72a3.39 3.39 0 0 1-1.69 2.94L26.5 55.78a3.39 3.39 0 0 1-3.39 0z"></path></g><g id="SvgjsG3103" featureKey="symbolFeature-0" transform="matrix(0.8889028292357897,0,0,0.8889028292357897,111.55423969983795,99.96514498832049)" fill="#f8b500"><g xmlns="http://www.w3.org/2000/svg" display="none"><rect x="-137.382" y="-8.38" display="inline" fill="#f8b500" stroke="#f8b500" stroke-width="0.4634" stroke-miterlimit="10" width="1226.941" height="1582.379"></rect></g><g xmlns="http://www.w3.org/2000/svg"><g><path d="M93.626,33.986c-2.331-4.859-7.324-8-12.718-8c-0.508,0-1.012,0.027-1.512,0.081c-0.671-5.771-4.906-10.803-10.833-12.167    c-1.042-0.24-2.108-0.361-3.169-0.361c-1.32,0-2.633,0.187-3.902,0.555c-5.703,1.654-9.686,7.088-9.686,13.215v0.971v10.629V61.1    v7.968v3.569c0,7.236,5.489,13.293,12.497,13.79c0.328,0.023,0.661,0.035,0.989,0.035c1.051,0,2.104-0.12,3.13-0.356    c5.924-1.337,10.18-6.348,10.876-12.112c0.518,0.058,1.041,0.087,1.568,0.087c5.372,0,10.356-3.122,12.699-7.953    c2.656-5.478,1.39-11.935-2.69-16.073C94.972,45.932,96.264,39.477,93.626,33.986z M90.917,64.845    c-1.929,3.977-5.91,6.295-10.052,6.295c-1.555,0-3.132-0.327-4.633-1.015c1.215,5.934-2.537,11.776-8.471,13.115    c-0.826,0.19-1.661,0.281-2.471,0.281c-0.262,0-0.522-0.009-0.781-0.028c-5.569-0.395-9.764-5.273-9.764-10.856v-3.569V61.1    V38.908V28.279v-0.971c0-4.738,3.014-9.071,7.564-10.39c0.989-0.287,2.025-0.438,3.083-0.438c0.828,0,1.668,0.093,2.51,0.286    c5.925,1.363,9.652,7.223,8.412,13.156c1.489-0.674,3.053-0.995,4.593-0.995c4.159,0,8.15,2.335,10.068,6.333    c2.636,5.487,0.38,12.057-5.033,14.784C91.347,52.796,93.57,59.374,90.917,64.845z"></path><g><path d="M17.646,48.444h8.611v9.173h9.966v-1.961h-0.865h-7.14v-8.086v-1.086h-0.959h-7.652v-5.537h2.05v-0.808V34.69h-6.257     v6.257h2.246V48.444z M17.36,38.986v-2.335h2.335v2.335H17.36z"></path><path d="M19.606,66.513v-6.847h2.05v-0.764v-5.493h-6.257v6.257h2.246v8.807h9.778v-0.98v0v-0.98h-0.658H19.606z M17.36,57.705     V55.37h2.335v2.335H17.36z"></path><path d="M39.921,52.143h-0.98v2.505v19.707h-2.822v-2.148h-4.052h-2.205v6.257h6.257v-2.148h4.783V52.143H39.921L39.921,52.143z      M34.158,76.503h-2.335v-2.335h2.335V76.503z"></path><path d="M34.714,30.031v-2.148h3.468v9.126v1.267h1.961V25.923h-5.429v-2.148h-6.256v6.256h4.326H34.714z M32.754,28.071h-2.335     v-2.335h2.335V28.071z"></path><path d="M68.447,59.847h-0.98v1.657v12.712h-3.733v-2.148h-2.516h-3.741v6.257h6.257v-2.148h5.693v-16.33H68.447L68.447,59.847z      M61.774,76.364h-2.335v-2.335h2.335V76.364z"></path><path d="M82.615,43.399v-7.812l-16.581,0.091h-5.175v-8.914h3.995v2.148h2.987h3.269v-6.257h-6.257v2.148h-5.956v30.792h-1.42     v6.257h6.257v-6.257h-2.876v-0.542V37.638h11.289v10.583h-1.779v0.322v5.196h5.518v-5.518h-1.778V37.548h1.297h5.25v4.702v1.149     h-1.778v5.517h5.518v-5.517H82.615z M66.814,24.616h2.335v2.335h-2.335V24.616z M61.774,57.556v2.335h-2.335v-2.335H61.774z      M73.925,51.779h-1.596v-1.596h1.596V51.779z M82.432,46.955h-1.596v-1.596h1.596V46.955z"></path><path d="M78.876,59.037v0.82h1.778v5.537h-6.759h-0.768v0.98v0v0.98h9.487v-7.497h1.778V54.34h-5.517V59.037z M80.836,56.3h1.596     v1.596h-1.596V56.3z"></path><path d="M38.51,14.09c-1.27-0.37-2.58-0.55-3.9-0.55c-1.06,0-2.13,0.12-3.17,0.36c-5.93,1.36-10.16,6.4-10.84,12.17     c-0.49-0.06-1-0.08-1.51-0.08c-5.39,0-10.38,3.14-12.72,8c-2.63,5.49-1.34,11.94,2.76,16.06c-4.08,4.14-5.35,10.6-2.69,16.08     c2.34,4.83,7.32,7.95,12.7,7.95c0.52,0,1.05-0.03,1.56-0.09c0.7,5.77,4.96,10.78,10.89,12.12c1.02,0.23,2.07,0.35,3.12,0.35     c0.33,0,0.66-0.01,0.99-0.03c7.01-0.5,12.5-6.56,12.5-13.79V27.31C48.2,21.18,44.21,15.75,38.51,14.09z M45.25,72.64     c0,5.58-4.19,10.46-9.76,10.85c-0.26,0.02-0.52,0.03-0.78,0.03c-0.81,0-1.64-0.09-2.47-0.28c-5.93-1.34-9.69-7.18-8.47-13.11     c-1.5,0.68-3.08,1.01-4.63,1.01c-4.15,0-8.13-2.32-10.06-6.3c-2.65-5.47-0.43-12.04,4.98-14.8c-5.42-2.72-7.67-9.29-5.03-14.78     c1.91-4,5.9-6.33,10.06-6.33c1.54,0,3.11,0.32,4.6,0.99c-1.24-5.93,2.48-11.79,8.41-13.15c0.84-0.2,1.68-0.29,2.51-0.29     c1.06,0,2.09,0.15,3.08,0.44c4.55,1.32,7.56,5.65,7.56,10.39v17.33h-7.5v-2.15h-6.26v6.26h6.26V46.6h7.5V72.64z M35.79,44.45     v2.34h-2.33v-2.34H35.79z"></path></g></g></g></g><g id="SvgjsG3104" featureKey="nameFeature-0" transform="matrix(0.9532434217971233,0,0,0.9532434217971233,54.85610796202474,185.56107984751827)" fill="#393e46"><path d="M1.2 40 l0 -4.48 l0.84 -0.56 l0 -17.92 l-0.84 -0.56 l0 -4.48 l6.72 0 l0 4.48 l-0.84 0.56 l0 6.44 l6.16 0 l0 -6.44 l-0.84 -0.56 l0 -4.48 l6.72 0 l0 4.48 l-0.84 0.56 l0 17.92 l0.84 0.56 l0 4.48 l-6.72 0 l0 -4.48 l0.84 -0.56 l0 -6.44 l-6.16 0 l0 6.44 l0.84 0.56 l0 4.48 l-6.72 0 z M24.41 40 l0 -4.48 l0.84 -0.56 l0 -17.92 l-0.84 -0.56 l0 -4.48 l14.56 0 l0 5.88 l-4.48 0 l-0.56 -0.84 l-3.64 0 l0 6.44 l6.44 0 l0 5.04 l-6.44 0 l0 6.44 l3.64 0 l0.56 -0.84 l4.48 0 l0 5.88 l-14.56 0 z M44.260000000000005 40 l0 -4.48 l0.84 -0.56 l0 -17.92 l-0.84 -0.56 l0 -4.48 l6.72 0 l0 4.48 l-0.84 0.56 l0 17.92 l2.8 0 l0.56 -0.84 l4.48 0 l0 5.88 l-13.72 0 z M63.27000000000001 40 l0 -4.48 l0.84 -0.56 l0 -17.92 l-0.84 -0.56 l0 -4.48 l6.72 0 l0 4.48 l-0.84 0.56 l0 17.92 l2.8 0 l0.56 -0.84 l4.48 0 l0 5.88 l-13.72 0 z M86.00000000000001 40 l-3.72 -3.72 l0 -20.56 l3.72 -3.72 l9.08 0 l3.72 3.72 l0 20.56 l-3.72 3.72 l-9.08 0 z M88.08000000000001 34.96 l4.92 0 l0.76 -0.76 l0 -16.4 l-0.76 -0.76 l-4.92 0 l-0.76 0.76 l0 16.4 z M104.09000000000002 40 l0 -4.48 l0.84 -0.56 l0 -17.92 l-0.84 -0.56 l0 -4.48 l6.2 0 l4.16 10.6 l4.16 -10.6 l6.2 0 l0 4.48 l-0.84 0.56 l0 17.92 l0.84 0.56 l0 4.48 l-6.72 0 l0 -4.48 l0.84 -0.56 l0 -9.96 l-2.48 6.32 l-4 0 l-2.48 -6.32 l0 9.96 l0.84 0.56 l0 4.48 l-6.72 0 z M129.3 40 l0 -4.48 l0.84 -0.56 l3.64 -17.92 l-0.84 -0.56 l0 -4.48 l10.64 0 l0 4.48 l-0.84 0.56 l3.64 17.92 l0.84 0.56 l0 4.48 l-4.96 0 l-1.24 -6.16 l-5.52 0 l-1.24 6.16 l-4.96 0 z M136.54 28.8 l3.44 0 l-1.72 -8.56 z M151.70999999999998 40 l0 -4.48 l0.84 -0.56 l0 -17.92 l-0.84 -0.56 l0 -4.48 l6.72 0 l0 4.48 l-0.84 0.56 l0 7.84 l5.32 -6.76 l0 -1.08 l-0.84 -0.56 l0 -4.48 l6.72 0 l0 4.48 l-0.84 0.56 l0 2.84 l-3.64 4.64 l3.64 4.52 l0 5.92 l0.84 0.56 l0 4.48 l-6.72 0 l0 -4.48 l0.84 -0.56 l0 -4.16 l-1.8 -2.2 l-3.52 4.44 l0 1.92 l0.84 0.56 l0 4.48 l-6.72 0 z M174.07999999999998 40 l0 -4.48 l0.84 -0.56 l0 -17.92 l-0.84 -0.56 l0 -4.48 l14.56 0 l0 5.88 l-4.48 0 l-0.56 -0.84 l-3.64 0 l0 6.44 l6.44 0 l0 5.04 l-6.44 0 l0 6.44 l3.64 0 l0.56 -0.84 l4.48 0 l0 5.88 l-14.56 0 z M193.92999999999998 40 l0 -4.48 l0.84 -0.56 l0 -17.92 l-0.84 -0.56 l0 -4.48 l12.8 0 l3.72 3.72 l0 10.2 l-2.16 2.2 l1.72 6.68 l1 0.72 l0 4.48 l-6.88 0 l0 -4.48 l0.72 -0.48 l-1.4 -5.4 l-3.64 0 l0 5.32 l0.84 0.56 l0 4.48 l-6.72 0 z M199.81 24.6 l4.84 0 l0.76 -0.76 l0 -6.04 l-0.76 -0.76 l-4.84 0 l0 7.56 z"></path></g><g id="SvgjsG3105" featureKey="sloganFeature-0" transform="matrix(0.6063286057071904,0,0,0.6063286057071904,59.44217774491019,229.98610556696724)" fill="#f8b500"><path d="M3.94 9.3 l-2.84 0 c-0.1 0 -0.18 -0.08 -0.18 -0.18 l0 -2.14 c0 -0.1 0.08 -0.18 0.18 -0.18 l8.34 0 c0.1 0 0.18 0.08 0.18 0.18 l0 2.14 c0 0.1 -0.08 0.18 -0.18 0.18 l-2.84 0 l0 10.52 c0 0.1 -0.08 0.18 -0.18 0.18 l-2.3 0 c-0.1 0 -0.18 -0.08 -0.18 -0.18 l0 -10.52 z M8.22 7.9 l-6.04 0 c-0.14 0 -0.14 0.26 0 0.26 l2.96 0 l0 10.6 c0 0.14 0.26 0.14 0.26 0 l0 -10.6 l2.82 0 c0.2 0 0.18 -0.26 0 -0.26 z M12.580000000000002 20 c-0.1 0 -0.16 -0.08 -0.16 -0.18 l0 -12.84 c0 -0.1 0.06 -0.18 0.16 -0.18 l6.8 0 c0.1 0 0.18 0.08 0.18 0.18 l0 2.14 c0 0.1 -0.08 0.18 -0.18 0.18 l-4.32 0 l0 2.72 l3.36 0 c0.1 0 0.16 0.08 0.16 0.18 l0 2.18 c0 0.1 -0.06 0.18 -0.16 0.18 l-3.36 0 l0 2.94 l4.32 0 c0.1 0 0.18 0.08 0.18 0.18 l0 2.14 c0 0.1 -0.08 0.18 -0.18 0.18 l-6.8 0 z M13.580000000000002 8.06 l0 10.64 c0 0.12 0.08 0.16 0.16 0.16 l4.6 0 c0.18 0 0.14 -0.24 0 -0.24 l-4.5 0 l0 -5.22 l3.68 0 c0.12 0 0.12 -0.28 0 -0.28 l-3.68 0 l0 -4.96 l4.5 0 c0.14 0 0.18 -0.26 0 -0.26 l-4.6 0 c-0.08 0 -0.16 0.06 -0.16 0.16 z M29.200000000000003 15.379999999999999 l0 -0.62 c0 -0.1 0.08 -0.18 0.18 -0.18 l2.28 0 c0.1 0 0.18 0.08 0.18 0.18 l0 1.26 c0 2.94 -1.58 4.18 -4.56 4.18 c-2.78 0 -4.6 -1.1 -4.6 -4.18 l0 -5.26 c0 -2.96 1.62 -4.14 4.6 -4.14 c2.82 0 4.56 1.08 4.56 4.14 l0 0.42 c0 0.1 -0.08 0.18 -0.18 0.18 l-2.3 0 c-0.1 0 -0.18 -0.08 -0.18 -0.18 l0 -0.32 c0 -1.1 -0.82 -1.56 -1.8 -1.56 l-0.24 0 c-0.66 0 -1.1 0.18 -1.4 0.58 c-0.28 0.38 -0.38 0.88 -0.38 1.54 l0 3.96 c0 1.74 0.98 2.12 1.78 2.12 l0.24 0 c1.26 0 1.78 -0.84 1.82 -2.12 z M27.240000000000002 7.859999999999999 c-2.14 0 -3.38 0.76 -3.38 3.2 l0 4.82 c0 2.22 1.14 3.04 3.38 3.04 c2.1 0 3.36 -0.76 3.36 -3.06 c0 -0.16 -0.24 -0.16 -0.24 0 c0 2.02 -1.1 2.84 -3.12 2.84 c-1.96 0 -3.16 -0.68 -3.16 -2.82 l0 -4.82 c0 -2.08 0.98 -2.98 3.16 -2.98 c2.84 0 2.94 1.8 2.94 2 c0 0.18 0.28 0.2 0.28 0 c0 -1.66 -1.68 -2.22 -3.22 -2.22 z M41.080000000000005 12 l0 -5.02 c0 -0.1 0.08 -0.18 0.18 -0.18 l2.28 0 c0.1 0 0.18 0.08 0.18 0.18 l0 12.84 c0 0.1 -0.08 0.18 -0.18 0.18 l-2.28 0 c-0.1 0 -0.18 -0.08 -0.18 -0.18 l0 -5.32 l-3.24 0 l0 5.32 c0 0.1 -0.08 0.18 -0.18 0.18 l-2.28 0 c-0.1 0 -0.16 -0.08 -0.16 -0.18 l0 -12.84 c0 -0.1 0.06 -0.18 0.16 -0.18 l2.28 0 c0.1 0 0.18 0.08 0.18 0.18 l0 5.02 l3.24 0 z M36.38 18.76 c0 0.16 0.26 0.14 0.26 0 l0 -5.36 l5.62 0 l0 5.36 c0 0.14 0.22 0.16 0.22 0 l0 -10.76 c0 -0.14 -0.22 -0.18 -0.22 0 l0 5.12 l-5.62 0 l0 -5.12 c0 -0.14 -0.26 -0.14 -0.26 0 l0 10.76 z M57.38 6.800000000000001 c0.1 0 0.18 0.08 0.18 0.18 l0 10.5 l4.32 0 c0.1 0 0.18 0.08 0.18 0.18 l0 2.16 c0 0.1 -0.08 0.18 -0.18 0.18 l-6.78 0 c-0.1 0 -0.16 -0.08 -0.16 -0.18 l0 -12.84 c0 -0.1 0.06 -0.18 0.16 -0.18 l2.28 0 z M56.14 8.02 l0 10.76 c0 0.04 0.04 0.1 0.12 0.1 l4.62 0 c0.16 0 0.16 -0.26 0 -0.26 l-4.52 0 l0 -10.6 c0 -0.14 -0.22 -0.16 -0.22 0 z M65.02000000000001 20 c-0.1 0 -0.16 -0.08 -0.16 -0.18 l0 -12.84 c0 -0.1 0.06 -0.18 0.16 -0.18 l6.8 0 c0.1 0 0.18 0.08 0.18 0.18 l0 2.14 c0 0.1 -0.08 0.18 -0.18 0.18 l-4.32 0 l0 2.72 l3.36 0 c0.1 0 0.16 0.08 0.16 0.18 l0 2.18 c0 0.1 -0.06 0.18 -0.16 0.18 l-3.36 0 l0 2.94 l4.32 0 c0.1 0 0.18 0.08 0.18 0.18 l0 2.14 c0 0.1 -0.08 0.18 -0.18 0.18 l-6.8 0 z M66.02000000000001 8.06 l0 10.64 c0 0.12 0.08 0.16 0.16 0.16 l4.6 0 c0.18 0 0.14 -0.24 0 -0.24 l-4.5 0 l0 -5.22 l3.68 0 c0.12 0 0.12 -0.28 0 -0.28 l-3.68 0 l0 -4.96 l4.5 0 c0.14 0 0.18 -0.26 0 -0.26 l-4.6 0 c-0.08 0 -0.16 0.06 -0.16 0.16 z M77.88 6.92 c0.02 -0.06 0.06 -0.12 0.14 -0.12 l2.48 0 c0.08 0 0.12 0.06 0.14 0.12 l3.46 12.86 c0.02 0.12 -0.06 0.22 -0.18 0.22 l-2.28 0 c-0.06 0 -0.12 -0.04 -0.14 -0.12 l-0.78 -2.8 l-2.92 0 l-0.76 2.8 c-0.02 0.08 -0.06 0.12 -0.14 0.12 l-2.3 0 c-0.12 0 -0.2 -0.1 -0.18 -0.22 z M78.44 14.6 l1.66 0 l-0.86 -3.02 z M81.52 15.780000000000001 l0.92 3 c0.04 0.12 0.26 0.1 0.2 -0.06 l-3.2 -10.64 c-0.06 -0.26 -0.4 -0.28 -0.46 0 l-3.1 10.64 c-0.06 0.14 0.16 0.2 0.22 0.08 l0.88 -3.02 l4.54 0 z M77.04 15.52 l2.18 -7.36 l2.22 7.36 l-4.4 0 z M94.39999999999999 14.780000000000001 c-0.28 0.58 -0.68 1.02 -1.24 1.28 l1.68 3.7 c0.06 0.12 -0.02 0.24 -0.14 0.24 l-2.46 0 c-0.08 0 -0.12 -0.04 -0.14 -0.1 l-1.56 -3.4 l-1.02 0 l0 3.32 c0 0.1 -0.08 0.18 -0.18 0.18 l-2.3 0 c-0.08 0 -0.14 -0.08 -0.14 -0.18 l0 -12.84 c0 -0.1 0.06 -0.18 0.14 -0.18 l4.16 0 c2.22 0 3.56 1.26 3.56 3.6 l0 2.52 c0 0.7 -0.12 1.36 -0.36 1.86 z M92.14 12.3 l0 -1.3 c0 -1.4 -0.52 -1.54 -2.04 -1.54 l-0.58 0 l0 4.42 l0.58 0 c1.26 0 2 -0.02 2.04 -1.58 z M88.36 18.78 l0 -3.42 l2.88 0 l1.68 3.46 c0.04 0.1 0.28 0.06 0.22 -0.12 l-1.68 -3.4 c1.56 -0.22 2.1 -1.04 2.1 -2.52 l0 -2.5 c0 -2.2 -2 -2.38 -2.62 -2.38 l-2.7 0 c-0.04 0 -0.12 0.06 -0.12 0.12 l0 10.76 c0 0.14 0.24 0.14 0.24 0 z M93.32 10.28 l0 2.5 c0 2.04 -1.3 2.32 -2.56 2.32 l-2.4 0 l0 -6.94 l2.58 0 c2.16 0 2.38 1.46 2.38 2.12 z M103.76 6.98 c0 -0.1 0.08 -0.18 0.18 -0.18 l2.3 0 c0.1 0 0.18 0.08 0.18 0.18 l0 12.84 c0 0.1 -0.08 0.18 -0.18 0.18 l-2.22 0 c-0.08 0 -0.16 -0.04 -0.18 -0.1 l-2.92 -6.58 l0 6.5 c0 0.1 -0.08 0.18 -0.18 0.18 l-2.28 0 c-0.1 0 -0.16 -0.08 -0.16 -0.18 l0 -12.84 c0 -0.1 0.06 -0.18 0.16 -0.18 l2.36 0 c0.08 0 0.12 0.06 0.14 0.1 l2.8 6.46 l0 -6.38 z M105.2 18.8 l0 -10.8 c0 -0.14 -0.26 -0.18 -0.26 0 l0 10.28 l-5.22 -10.32 c-0.06 -0.08 -0.22 -0.08 -0.22 0.04 l0 10.78 c0 0.18 0.24 0.18 0.24 0 l0 -10.26 l5.2 10.3 c0.08 0.14 0.26 0.1 0.26 -0.02 z M110.34 20 c-0.1 0 -0.16 -0.08 -0.16 -0.18 l0 -12.84 c0 -0.1 0.06 -0.18 0.16 -0.18 l2.28 0 c0.1 0 0.18 0.08 0.18 0.18 l0 12.84 c0 0.1 -0.08 0.18 -0.18 0.18 l-2.28 0 z M111.38 8 l0 10.78 c0 0.18 0.22 0.18 0.22 0 l0 -10.78 c0 -0.14 -0.22 -0.14 -0.22 0 z M121.94 6.98 c0 -0.1 0.08 -0.18 0.18 -0.18 l2.3 0 c0.1 0 0.18 0.08 0.18 0.18 l0 12.84 c0 0.1 -0.08 0.18 -0.18 0.18 l-2.22 0 c-0.08 0 -0.16 -0.04 -0.18 -0.1 l-2.92 -6.58 l0 6.5 c0 0.1 -0.08 0.18 -0.18 0.18 l-2.28 0 c-0.1 0 -0.16 -0.08 -0.16 -0.18 l0 -12.84 c0 -0.1 0.06 -0.18 0.16 -0.18 l2.36 0 c0.08 0 0.12 0.06 0.14 0.1 l2.8 6.46 l0 -6.38 z M123.38 18.8 l0 -10.8 c0 -0.14 -0.26 -0.18 -0.26 0 l0 10.28 l-5.22 -10.32 c-0.06 -0.08 -0.22 -0.08 -0.22 0.04 l0 10.78 c0 0.18 0.24 0.18 0.24 0 l0 -10.26 l5.2 10.3 c0.08 0.14 0.26 0.1 0.26 -0.02 z M132.5 15.2 c-0.1 0 -0.18 -0.08 -0.18 -0.18 l0 -2.14 c0 -0.1 0.08 -0.18 0.18 -0.18 l4.58 0 c0.1 0 0.18 0.08 0.18 0.18 l0 3.14 c0 2.94 -1.58 4.18 -4.56 4.18 c-2.78 0 -4.6 -1.1 -4.6 -4.18 l0 -5.26 c0 -2.9 1.62 -4.14 4.6 -4.14 c2.8 0 4.56 1.08 4.56 4.14 l0 0.42 c0 0.1 -0.08 0.18 -0.18 0.18 l-2.3 0 c-0.1 0 -0.18 -0.08 -0.18 -0.18 l0 -0.26 c0 -1.22 -0.78 -1.62 -1.8 -1.62 l-0.24 0 c-0.66 0 -1.1 0.18 -1.4 0.58 c-0.28 0.38 -0.38 0.88 -0.38 1.54 l0 3.96 c0 1.74 0.94 2.12 1.78 2.12 l0.24 0 c1.22 0 1.8 -0.84 1.8 -2.12 l0 -0.18 l-2.1 0 z M129.32 15.879999999999999 c0 2.22 1.08 3.04 3.36 3.04 c2.4 0 3.38 -1 3.38 -3.46 l0 -1.5 c0 -0.06 -0.04 -0.14 -0.08 -0.14 l-2.78 0 c-0.18 0 -0.14 0.26 0 0.26 l2.62 0 l0 1.38 c0 2.14 -0.82 3.24 -3.14 3.24 c-1.92 0 -3.12 -0.68 -3.12 -2.82 l0 -4.82 c0 -2.06 0.94 -2.98 3.12 -2.98 c1.62 0 3.1 0.9 2.98 2.28 c0 0.16 0.22 0.2 0.26 0.02 c0 -1.76 -1.6 -2.52 -3.24 -2.52 c-2 0 -3.36 0.72 -3.36 3.2 l0 4.82 z M149.34 8 l0 10.78 c0 0.14 0.24 0.18 0.24 0 l0 -5.38 l3.68 0 c0.2 0 0.2 -0.28 0 -0.28 l-3.68 0 l0 -4.96 l4.48 0 c0.14 0 0.18 -0.26 0 -0.26 l-4.6 0 c-0.06 0 -0.12 0.02 -0.12 0.1 z M150.6 20 l-2.3 0 c-0.1 0 -0.16 -0.08 -0.16 -0.18 l0 -12.84 c0 -0.1 0.06 -0.18 0.16 -0.18 l6.8 0 c0.1 0 0.18 0.08 0.18 0.18 l0 2.14 c0 0.1 -0.08 0.18 -0.18 0.18 l-4.32 0 l0 2.72 l3.36 0 c0.1 0 0.16 0.08 0.16 0.18 l0 2.18 c0 0.1 -0.06 0.18 -0.16 0.18 l-3.36 0 l0 5.26 c0 0.1 -0.08 0.18 -0.18 0.18 z M162.42 6.619999999999999 c1.72 0 2.92 0.38 3.68 1.2 c0.6 0.66 0.88 1.6 0.88 2.94 l0 5.26 c0 1.38 -0.28 2.34 -0.88 2.98 c-0.78 0.8 -1.96 1.2 -3.68 1.2 c-1.78 0 -2.94 -0.4 -3.7 -1.2 c-0.58 -0.64 -0.9 -1.6 -0.9 -2.98 l0 -5.26 c0 -1.34 0.32 -2.28 0.9 -2.96 c0.78 -0.8 1.96 -1.18 3.7 -1.18 z M164.32 15.42 l0 -4 c0 -1.76 -0.94 -2.12 -1.8 -2.12 l-0.24 0 c-1.28 0 -1.78 0.82 -1.78 2.12 l0 4 c0 1.76 0.94 2.14 1.78 2.14 l0.24 0 c1.28 0 1.78 -0.86 1.8 -2.14 z M159.07999999999998 10.9 l0 4.96 c0 0.94 0.24 1.72 0.8 2.3 c0.52 0.52 1.32 0.8 2.3 0.8 l0.52 0 c1.88 0 3.1 -1.2 3.1 -3.1 l0 -4.96 c0 -2.04 -1.08 -3.14 -3.1 -3.14 l-0.52 0 c-2.04 0 -3.1 1.1 -3.1 3.14 z M162.7 18.7 l-0.52 0 c-0.94 0 -1.64 -0.24 -2.14 -0.74 s-0.76 -1.2 -0.76 -2.1 l0 -4.96 c0 -1.9 1.02 -2.9 2.9 -2.9 l0.52 0 c1.9 0 2.84 0.98 2.84 2.9 l0 4.96 c0 0.84 -0.26 1.6 -0.8 2.12 c-0.52 0.44 -1.22 0.72 -2.04 0.72 z M177.98 14.780000000000001 c-0.28 0.58 -0.68 1.02 -1.24 1.28 l1.68 3.7 c0.06 0.12 -0.02 0.24 -0.14 0.24 l-2.46 0 c-0.08 0 -0.12 -0.04 -0.14 -0.1 l-1.56 -3.4 l-1.02 0 l0 3.32 c0 0.1 -0.08 0.18 -0.18 0.18 l-2.3 0 c-0.08 0 -0.14 -0.08 -0.14 -0.18 l0 -12.84 c0 -0.1 0.06 -0.18 0.14 -0.18 l4.16 0 c2.22 0 3.56 1.26 3.56 3.6 l0 2.52 c0 0.7 -0.12 1.36 -0.36 1.86 z M175.72 12.3 l0 -1.3 c0 -1.4 -0.52 -1.54 -2.04 -1.54 l-0.58 0 l0 4.42 l0.58 0 c1.26 0 2 -0.02 2.04 -1.58 z M171.94 18.78 l0 -3.42 l2.88 0 l1.68 3.46 c0.04 0.1 0.28 0.06 0.22 -0.12 l-1.68 -3.4 c1.56 -0.22 2.1 -1.04 2.1 -2.52 l0 -2.5 c0 -2.2 -2 -2.38 -2.62 -2.38 l-2.7 0 c-0.04 0 -0.12 0.06 -0.12 0.12 l0 10.76 c0 0.14 0.24 0.14 0.24 0 z M176.9 10.28 l0 2.5 c0 2.04 -1.3 2.32 -2.56 2.32 l-2.4 0 l0 -6.94 l2.58 0 c2.16 0 2.38 1.46 2.38 2.12 z M190.85999999999999 6.9 l1.74 3.36 l1.7 -3.36 c0.06 -0.1 0.08 -0.1 0.16 -0.1 l2.24 0 c0.12 0 0.2 0.12 0.16 0.22 l-2.9 6.74 l0 6.06 c0 0.1 -0.08 0.18 -0.18 0.18 l-2.36 0 c-0.06 0 -0.14 -0.08 -0.14 -0.18 l0 -6.06 l-2.98 -6.7 c-0.04 -0.14 0.02 -0.26 0.16 -0.26 l2.24 0 c0.08 0 0.1 0 0.16 0.1 z M192.7 13.3 l2.5 -5.2 c0.06 -0.12 -0.14 -0.22 -0.22 -0.08 l-2.38 4.98 l-2.44 -4.98 c-0.08 -0.14 -0.3 -0.04 -0.24 0.1 l2.56 5.18 l0 5.52 c0 0.14 0.22 0.16 0.22 0 l0 -5.52 z M203.92 6.619999999999999 c1.72 0 2.92 0.38 3.68 1.2 c0.6 0.66 0.88 1.6 0.88 2.94 l0 5.26 c0 1.38 -0.28 2.34 -0.88 2.98 c-0.78 0.8 -1.96 1.2 -3.68 1.2 c-1.78 0 -2.94 -0.4 -3.7 -1.2 c-0.58 -0.64 -0.9 -1.6 -0.9 -2.98 l0 -5.26 c0 -1.34 0.32 -2.28 0.9 -2.96 c0.78 -0.8 1.96 -1.18 3.7 -1.18 z M205.82 15.42 l0 -4 c0 -1.76 -0.94 -2.12 -1.8 -2.12 l-0.24 0 c-1.28 0 -1.78 0.82 -1.78 2.12 l0 4 c0 1.76 0.94 2.14 1.78 2.14 l0.24 0 c1.28 0 1.78 -0.86 1.8 -2.14 z M200.57999999999998 10.9 l0 4.96 c0 0.94 0.24 1.72 0.8 2.3 c0.52 0.52 1.32 0.8 2.3 0.8 l0.52 0 c1.88 0 3.1 -1.2 3.1 -3.1 l0 -4.96 c0 -2.04 -1.08 -3.14 -3.1 -3.14 l-0.52 0 c-2.04 0 -3.1 1.1 -3.1 3.14 z M204.2 18.7 l-0.52 0 c-0.94 0 -1.64 -0.24 -2.14 -0.74 s-0.76 -1.2 -0.76 -2.1 l0 -4.96 c0 -1.9 1.02 -2.9 2.9 -2.9 l0.52 0 c1.9 0 2.84 0.98 2.84 2.9 l0 4.96 c0 0.84 -0.26 1.6 -0.8 2.12 c-0.52 0.44 -1.22 0.72 -2.04 0.72 z M218.34 15.379999999999999 l0 -8.4 c0 -0.1 0.08 -0.18 0.18 -0.18 l2.28 0 c0.1 0 0.18 0.08 0.18 0.18 l0 9.04 c0 2.88 -1.58 4.18 -4.56 4.18 c-2.82 0 -4.58 -1.12 -4.58 -4.18 l0 -9.04 c0 -0.1 0.08 -0.18 0.18 -0.18 l2.3 0 c0.1 0 0.18 0.08 0.18 0.18 l0 8.4 c0 1.74 0.98 2.12 1.8 2.12 l0.24 0 c1.24 0 1.8 -0.84 1.8 -2.12 z M213.07999999999998 8.08 l0 7.78 c0 1.8 1.22 3.1 3.12 3.1 l0.5 0 c1.9 0 3.14 -1.36 3.14 -3.1 l0 -7.78 c0 -0.18 -0.24 -0.2 -0.24 0 l0 7.78 c0 1.64 -1.18 2.84 -2.9 2.84 l-0.5 0 c-1.68 0 -2.88 -1.08 -2.88 -2.84 l0 -7.78 c0 -0.18 -0.24 -0.18 -0.24 0 z M230.04 6.98 c0 -0.1 0.08 -0.18 0.18 -0.18 l2.3 0 c0.1 0 0.18 0.08 0.18 0.18 l0 12.84 c0 0.1 -0.08 0.18 -0.18 0.18 l-2.22 0 c-0.08 0 -0.16 -0.04 -0.18 -0.1 l-2.92 -6.58 l0 6.5 c0 0.1 -0.08 0.18 -0.18 0.18 l-2.28 0 c-0.1 0 -0.16 -0.08 -0.16 -0.18 l0 -12.84 c0 -0.1 0.06 -0.18 0.16 -0.18 l2.36 0 c0.08 0 0.12 0.06 0.14 0.1 l2.8 6.46 l0 -6.38 z M231.48 18.8 l0 -10.8 c0 -0.14 -0.26 -0.18 -0.26 0 l0 10.28 l-5.22 -10.32 c-0.06 -0.08 -0.22 -0.08 -0.22 0.04 l0 10.78 c0 0.18 0.24 0.18 0.24 0 l0 -10.26 l5.2 10.3 c0.08 0.14 0.26 0.1 0.26 -0.02 z M240.6 15.2 c-0.1 0 -0.18 -0.08 -0.18 -0.18 l0 -2.14 c0 -0.1 0.08 -0.18 0.18 -0.18 l4.58 0 c0.1 0 0.18 0.08 0.18 0.18 l0 3.14 c0 2.94 -1.58 4.18 -4.56 4.18 c-2.78 0 -4.6 -1.1 -4.6 -4.18 l0 -5.26 c0 -2.9 1.62 -4.14 4.6 -4.14 c2.8 0 4.56 1.08 4.56 4.14 l0 0.42 c0 0.1 -0.08 0.18 -0.18 0.18 l-2.3 0 c-0.1 0 -0.18 -0.08 -0.18 -0.18 l0 -0.26 c0 -1.22 -0.78 -1.62 -1.8 -1.62 l-0.24 0 c-0.66 0 -1.1 0.18 -1.4 0.58 c-0.28 0.38 -0.38 0.88 -0.38 1.54 l0 3.96 c0 1.74 0.94 2.12 1.78 2.12 l0.24 0 c1.22 0 1.8 -0.84 1.8 -2.12 l0 -0.18 l-2.1 0 z M237.42 15.879999999999999 c0 2.22 1.08 3.04 3.36 3.04 c2.4 0 3.38 -1 3.38 -3.46 l0 -1.5 c0 -0.06 -0.04 -0.14 -0.08 -0.14 l-2.78 0 c-0.18 0 -0.14 0.26 0 0.26 l2.62 0 l0 1.38 c0 2.14 -0.82 3.24 -3.14 3.24 c-1.92 0 -3.12 -0.68 -3.12 -2.82 l0 -4.82 c0 -2.06 0.94 -2.98 3.12 -2.98 c1.62 0 3.1 0.9 2.98 2.28 c0 0.16 0.22 0.2 0.26 0.02 c0 -1.76 -1.6 -2.52 -3.24 -2.52 c-2 0 -3.36 0.72 -3.36 3.2 l0 4.82 z M260.53999999999996 6.800000000000001 c2.22 0 3.56 1.26 3.56 3.6 l0 2.52 c0 2.14 -1.32 3.58 -3.56 3.58 l-1.68 0 l0 3.32 c0 0.1 -0.08 0.18 -0.18 0.18 l-2.3 0 c-0.08 0 -0.14 -0.08 -0.14 -0.18 l0 -12.84 c0 -0.1 0.06 -0.18 0.14 -0.18 l4.16 0 z M261.47999999999996 12.32 l0 -1.32 c0 -1.38 -0.64 -1.52 -2.04 -1.52 l-0.58 0 l0 4.4 l0.58 0 c1.1 0 2.04 -0.2 2.04 -1.56 z M262.9 12.780000000000001 l0 -2.5 c0 -2.2 -1.7 -2.38 -2.62 -2.38 l-2.7 0 c-0.04 0 -0.12 0.06 -0.12 0.12 l0 10.76 c0 0.14 0.24 0.14 0.24 0 l0 -3.4 l2.4 0 c1.76 0 2.8 -0.62 2.8 -2.6 z M257.7 8.16 l2.58 0 c2.22 0 2.36 1.46 2.36 2.12 l0 2.5 c0 2.04 -1.28 2.32 -2.54 2.32 l-2.4 0 l0 -6.94 z M267.08 20 c-0.1 0 -0.16 -0.08 -0.16 -0.18 l0 -12.84 c0 -0.1 0.06 -0.18 0.16 -0.18 l6.8 0 c0.1 0 0.18 0.08 0.18 0.18 l0 2.14 c0 0.1 -0.08 0.18 -0.18 0.18 l-4.32 0 l0 2.72 l3.36 0 c0.1 0 0.16 0.08 0.16 0.18 l0 2.18 c0 0.1 -0.06 0.18 -0.16 0.18 l-3.36 0 l0 2.94 l4.32 0 c0.1 0 0.18 0.08 0.18 0.18 l0 2.14 c0 0.1 -0.08 0.18 -0.18 0.18 l-6.8 0 z M268.08 8.06 l0 10.64 c0 0.12 0.08 0.16 0.16 0.16 l4.6 0 c0.18 0 0.14 -0.24 0 -0.24 l-4.5 0 l0 -5.22 l3.68 0 c0.12 0 0.12 -0.28 0 -0.28 l-3.68 0 l0 -4.96 l4.5 0 c0.14 0 0.18 -0.26 0 -0.26 l-4.6 0 c-0.08 0 -0.16 0.06 -0.16 0.16 z M281.78 6.619999999999999 c1.72 0 2.92 0.38 3.68 1.2 c0.6 0.66 0.88 1.6 0.88 2.94 l0 5.26 c0 1.38 -0.28 2.34 -0.88 2.98 c-0.78 0.8 -1.96 1.2 -3.68 1.2 c-1.78 0 -2.94 -0.4 -3.7 -1.2 c-0.58 -0.64 -0.9 -1.6 -0.9 -2.98 l0 -5.26 c0 -1.34 0.32 -2.28 0.9 -2.96 c0.78 -0.8 1.96 -1.18 3.7 -1.18 z M283.67999999999995 15.42 l0 -4 c0 -1.76 -0.94 -2.12 -1.8 -2.12 l-0.24 0 c-1.28 0 -1.78 0.82 -1.78 2.12 l0 4 c0 1.76 0.94 2.14 1.78 2.14 l0.24 0 c1.28 0 1.78 -0.86 1.8 -2.14 z M278.43999999999994 10.9 l0 4.96 c0 0.94 0.24 1.72 0.8 2.3 c0.52 0.52 1.32 0.8 2.3 0.8 l0.52 0 c1.88 0 3.1 -1.2 3.1 -3.1 l0 -4.96 c0 -2.04 -1.08 -3.14 -3.1 -3.14 l-0.52 0 c-2.04 0 -3.1 1.1 -3.1 3.14 z M282.05999999999995 18.7 l-0.52 0 c-0.94 0 -1.64 -0.24 -2.14 -0.74 s-0.76 -1.2 -0.76 -2.1 l0 -4.96 c0 -1.9 1.02 -2.9 2.9 -2.9 l0.52 0 c1.9 0 2.84 0.98 2.84 2.9 l0 4.96 c0 0.84 -0.26 1.6 -0.8 2.12 c-0.52 0.44 -1.22 0.72 -2.04 0.72 z M294.13999999999993 6.800000000000001 c2.22 0 3.56 1.26 3.56 3.6 l0 2.52 c0 2.14 -1.32 3.58 -3.56 3.58 l-1.68 0 l0 3.32 c0 0.1 -0.08 0.18 -0.18 0.18 l-2.3 0 c-0.08 0 -0.14 -0.08 -0.14 -0.18 l0 -12.84 c0 -0.1 0.06 -0.18 0.14 -0.18 l4.16 0 z M295.0799999999999 12.32 l0 -1.32 c0 -1.38 -0.64 -1.52 -2.04 -1.52 l-0.58 0 l0 4.4 l0.58 0 c1.1 0 2.04 -0.2 2.04 -1.56 z M296.49999999999994 12.780000000000001 l0 -2.5 c0 -2.2 -1.7 -2.38 -2.62 -2.38 l-2.7 0 c-0.04 0 -0.12 0.06 -0.12 0.12 l0 10.76 c0 0.14 0.24 0.14 0.24 0 l0 -3.4 l2.4 0 c1.76 0 2.8 -0.62 2.8 -2.6 z M291.2999999999999 8.16 l2.58 0 c2.22 0 2.36 1.46 2.36 2.12 l0 2.5 c0 2.04 -1.28 2.32 -2.54 2.32 l-2.4 0 l0 -6.94 z M302.9599999999999 6.800000000000001 c0.1 0 0.18 0.08 0.18 0.18 l0 10.5 l4.32 0 c0.1 0 0.18 0.08 0.18 0.18 l0 2.16 c0 0.1 -0.08 0.18 -0.18 0.18 l-6.78 0 c-0.1 0 -0.16 -0.08 -0.16 -0.18 l0 -12.84 c0 -0.1 0.06 -0.18 0.16 -0.18 l2.28 0 z M301.7199999999999 8.02 l0 10.76 c0 0.04 0.04 0.1 0.12 0.1 l4.62 0 c0.16 0 0.16 -0.26 0 -0.26 l-4.52 0 l0 -10.6 c0 -0.14 -0.22 -0.16 -0.22 0 z M310.59999999999997 20 c-0.1 0 -0.16 -0.08 -0.16 -0.18 l0 -12.84 c0 -0.1 0.06 -0.18 0.16 -0.18 l6.8 0 c0.1 0 0.18 0.08 0.18 0.18 l0 2.14 c0 0.1 -0.08 0.18 -0.18 0.18 l-4.32 0 l0 2.72 l3.36 0 c0.1 0 0.16 0.08 0.16 0.18 l0 2.18 c0 0.1 -0.06 0.18 -0.16 0.18 l-3.36 0 l0 2.94 l4.32 0 c0.1 0 0.18 0.08 0.18 0.18 l0 2.14 c0 0.1 -0.08 0.18 -0.18 0.18 l-6.8 0 z M311.59999999999997 8.06 l0 10.64 c0 0.12 0.08 0.16 0.16 0.16 l4.6 0 c0.18 0 0.14 -0.24 0 -0.24 l-4.5 0 l0 -5.22 l3.68 0 c0.12 0 0.12 -0.28 0 -0.28 l-3.68 0 l0 -4.96 l4.5 0 c0.14 0 0.18 -0.26 0 -0.26 l-4.6 0 c-0.08 0 -0.16 0.06 -0.16 0.16 z"></path></g>
			</g>
		</svg>
	